<!DOCTYPE svg PUBLIC "-//W3C//DTD SVG 1.1//EN" "https://www.w3.org/Graphics/SVG/1.1/DTD/svg11.dtd"><svg xmlns="http://www.w3.org/2000/svg" id="sfn-svg" class="sfn-workflow-graph" width="322" height="503">
    
    
<g transform="translate(12,19.625)"><g class="nodes"><g class="node-container" transform="translate(124.484375,18.25)"><g class="node anchor"><circle class="shape" x="-15.875" y="-8.25" r="25.875"/><text class="label"><tspan xml:space="preserve" text-anchor="middle" alignment-baseline="central">Start</tspan></text></g></g><g class="node-container" transform="translate(124.484375,448.875)"><g class="node anchor"><circle class="shape" x="-12.1875" y="-8.25" r="22.1875"/><text class="label"><tspan xml:space="preserve" text-anchor="middle" alignment-baseline="central">End</tspan></text></g></g><g class="node-container" transform="translate(124.484375,79.78125)"><g class="node state Pass NotYetStarted"><rect class="shape" rx="5" ry="5" x="-64.515625" y="-18.28125" width="129.03125" height="36.5625"/><text class="label"><tspan xml:space="preserve" text-anchor="middle" alignment-baseline="central">Notify restaurant</tspan></text></g></g><g class="node-container" transform="translate(124.484375,141.3125)"><g class="node state Pass NotYetStarted"><rect class="shape" rx="5" ry="5" x="-102.875" y="-18.25" width="205.75" height="36.5"/><text class="label"><tspan xml:space="preserve" text-anchor="middle" alignment-baseline="central">Wait for order to be accepted</tspan></text></g></g><g class="node-container" transform="translate(124.484375,202.8125)"><g class="node state Choice NotYetStarted"><rect class="shape" rx="5" ry="5" x="-61.5625" y="-18.25" width="123.125" height="36.5"/><text class="label"><tspan xml:space="preserve" text-anchor="middle" alignment-baseline="central">Order accepted?</tspan></text></g></g><g class="node-container" transform="translate(193.8671875,264.34375)"><g class="node state Pass NotYetStarted"><rect class="shape" rx="5" ry="5" x="-45.109375" y="-18.28125" width="90.21875" height="36.5625"/><text class="label"><tspan xml:space="preserve" text-anchor="middle" alignment-baseline="central">Notify user</tspan></text></g></g><g class="node-container" transform="translate(49.765625,387.375)"><g class="node state Fail NotYetStarted"><rect class="shape" rx="5" ry="5" x="-49.765625" y="-18.25" width="99.53125" height="36.5"/><text class="label"><tspan xml:space="preserve" text-anchor="middle" alignment-baseline="central">Cancel order</tspan></text></g></g><g class="node-container" transform="translate(193.8671875,325.875)"><g class="node state Choice NotYetStarted"><rect class="shape" rx="5" ry="5" x="-103.765625" y="-18.25" width="207.53125" height="36.5"/><text class="label"><tspan xml:space="preserve" text-anchor="middle" alignment-baseline="central">Wait for order to be delivered</tspan></text></g></g><g class="node-container" transform="translate(208.8671875,387.375)"><g class="node state Pass NotYetStarted"><rect class="shape" rx="5" ry="5" x="-59.671875" y="-18.25" width="119.34375" height="36.5"/><text class="label"><tspan xml:space="preserve" text-anchor="middle" alignment-baseline="central">Complete order</tspan></text></g></g></g><g class="edges"><g class="edge"><path class="path" marker-end="url(#arrowhead27)" d="M124.484375,98.0625L124.48437499999999,100.14583333333333C124.484375,102.22916666666666,124.484375,106.39583333333333,124.48437499999999,110.5625C124.484375,114.72916666666666,124.484375,118.89583333333331,124.48437499999999,120.97916666666666L124.484375,123.0625" style="fill: none;"/><defs><marker id="arrowhead27" viewBox="0 0 10 10" refX="9" refY="5" markerUnits="strokeWidth" markerWidth="8" markerHeight="6" orient="auto"><path d="M 0 0 L 10 5 L 0 10 z"/></marker></defs></g><g class="edge"><path class="path" marker-end="url(#arrowhead28)" d="M124.484375,44.125L124.48437499999999,44.93749999999999C124.484375,45.75,124.484375,47.375,124.48437499999999,50.27083333333333C124.484375,53.166666666666664,124.484375,57.33333333333333,124.48437499999999,59.416666666666664L124.484375,61.5" style="fill: none;"/><defs><marker id="arrowhead28" viewBox="0 0 10 10" refX="9" refY="5" markerUnits="strokeWidth" markerWidth="8" markerHeight="6" orient="auto"><path d="M 0 0 L 10 5 L 0 10 z"/></marker></defs></g><g class="edge"><path class="path" marker-end="url(#arrowhead29)" d="M124.484375,159.5625L124.48437499999999,161.64583333333334C124.484375,163.72916666666666,124.484375,167.89583333333331,124.48437499999999,172.06249999999997C124.484375,176.22916666666666,124.484375,180.39583333333331,124.48437499999999,182.47916666666666L124.484375,184.5625" style="fill: none;"/><defs><marker id="arrowhead29" viewBox="0 0 10 10" refX="9" refY="5" markerUnits="strokeWidth" markerWidth="8" markerHeight="6" orient="auto"><path d="M 0 0 L 10 5 L 0 10 z"/></marker></defs></g><g class="edge"><path class="path" marker-end="url(#arrowhead30)" d="M165.66279217479675,221.0625L170.36352472899728,223.14583333333331C175.06425728319783,225.22916666666666,184.4657223915989,229.39583333333331,189.16645494579944,233.56249999999997C193.8671875,237.72916666666663,193.8671875,241.89583333333331,193.86718749999997,243.97916666666666L193.8671875,246.0625" style="fill: none;"/><defs><marker id="arrowhead30" viewBox="0 0 10 10" refX="9" refY="5" markerUnits="strokeWidth" markerWidth="8" markerHeight="6" orient="auto"><path d="M 0 0 L 10 5 L 0 10 z"/></marker></defs></g><g class="edge"><path class="path" marker-end="url(#arrowhead31)" d="M71.23666158536585,221.0625L65.15815548780486,223.14583333333331C59.079649390243894,225.22916666666666,46.92263719512195,229.39583333333331,40.844131097560975,236.60937499999997C34.765625,243.82291666666663,34.765625,254.08333333333331,34.765625,264.34375C34.765625,274.60416666666663,34.765625,284.8645833333333,34.765625,295.11979166666663C34.765625,305.375,34.765625,315.625,34.765625,325.875C34.765625,336.125,34.765625,346.375,35.781885162601625,353.5833333333333C36.79814532520325,360.79166666666663,38.8306656504065,364.9583333333333,39.84692581300813,367.04166666666663L40.86318597560975,369.125" style="fill: none;"/><defs><marker id="arrowhead31" viewBox="0 0 10 10" refX="9" refY="5" markerUnits="strokeWidth" markerWidth="8" markerHeight="6" orient="auto"><path d="M 0 0 L 10 5 L 0 10 z"/></marker></defs></g><g class="edge"><path class="path" marker-end="url(#arrowhead32)" d="M49.765625,405.625L49.765624999999986,407.70833333333326C49.76562499999999,409.79166666666663,49.76562499999999,413.9583333333333,58.79910093071112,419.7593330471851C67.83257686142225,425.560332761037,85.89952872284451,432.995665522074,94.93300465355564,436.7133319025925L103.96648058426678,440.430998283111" style="fill: none;"/><defs><marker id="arrowhead32" viewBox="0 0 10 10" refX="9" refY="5" markerUnits="strokeWidth" markerWidth="8" markerHeight="6" orient="auto"><path d="M 0 0 L 10 5 L 0 10 z"/></marker></defs></g><g class="edge"><path class="path" marker-end="url(#arrowhead33)" d="M193.8671875,282.625L193.86718749999997,284.7083333333333C193.8671875,286.79166666666663,193.8671875,290.9583333333333,193.86718749999997,295.125C193.8671875,299.29166666666663,193.8671875,303.4583333333333,193.86718749999997,305.54166666666663L193.8671875,307.625" style="fill: none;"/><defs><marker id="arrowhead33" viewBox="0 0 10 10" refX="9" refY="5" markerUnits="strokeWidth" markerWidth="8" markerHeight="6" orient="auto"><path d="M 0 0 L 10 5 L 0 10 z"/></marker></defs></g><g class="edge"><path class="path" marker-end="url(#arrowhead34)" d="M202.76962652439025,344.125L203.78588668699186,346.2083333333333C204.8021468495935,348.29166666666663,206.83466717479672,352.4583333333333,207.85092733739836,356.625C208.8671875,360.79166666666663,208.8671875,364.9583333333333,208.86718749999997,367.04166666666663L208.8671875,369.125" style="fill: none;"/><defs><marker id="arrowhead34" viewBox="0 0 10 10" refX="9" refY="5" markerUnits="strokeWidth" markerWidth="8" markerHeight="6" orient="auto"><path d="M 0 0 L 10 5 L 0 10 z"/></marker></defs></g><g class="edge"><path class="path" marker-end="url(#arrowhead35)" d="M149.5219131097561,344.125L144.45966717479672,346.2083333333333C139.3974212398374,348.29166666666663,129.2729293699187,352.4583333333333,119.5099508807588,356.625C109.7469723915989,360.79166666666663,100.34550728319783,364.9583333333333,95.64477472899729,367.04166666666663L90.94404217479675,369.125" style="fill: none;"/><defs><marker id="arrowhead35" viewBox="0 0 10 10" refX="9" refY="5" markerUnits="strokeWidth" markerWidth="8" markerHeight="6" orient="auto"><path d="M 0 0 L 10 5 L 0 10 z"/></marker></defs></g><g class="edge"><path class="path" marker-end="url(#arrowhead36)" d="M208.8671875,405.625L208.86718749999997,407.70833333333326C208.8671875,409.79166666666663,208.8671875,413.9583333333333,198.2777983066569,419.90055342391116C187.6884091133138,425.84277351448907,166.50963072662765,433.5605470289782,155.92024153328458,437.4194337862227L145.3308523399415,441.2783205434673" style="fill: none;"/><defs><marker id="arrowhead36" viewBox="0 0 10 10" refX="9" refY="5" markerUnits="strokeWidth" markerWidth="8" markerHeight="6" orient="auto"><path d="M 0 0 L 10 5 L 0 10 z"/></marker></defs></g></g></g><style xmlns="http://www.w3.org/1999/xhtml">.node &gt; .shape {stroke: #555555;stroke-width: 0.6px;fill: #FFFFFF;} path {stroke: #555;background-color: #555;stroke-width: 1px;} .node.state.NotYetStarted &gt; .shape,.node.state.Container &gt; .shape {stroke-dasharray: 5 2;} .node.state.Failed &gt; .shape,rect.legend.Failed {fill: #DE322F;} .node.state.CaughtError &gt; .shape,rect.legend.CaughtError {fill: #FFA500;} .node.state.Succeeded &gt; .shape,rect.legend.Succeeded {fill: #2BD62E;} .node.state.InProgress &gt; .shape,rect.legend.InProgress {fill: #53c9ed;} .node.state.Cancelled &gt; .shape,rect.legend.Cancelled {fill: #dddddd;} .node.anchor &gt; .shape {fill: #FFDA75;} .node.state.hovered:not(.selected):not(.NotYetStarted) &gt; .shape,.node.selected &gt; .shape {stroke: #555555;stroke-width: 2px;} .node.state.Container.Failed &gt; .shape {fill: #EE9592;} .node.state.Container.CaughtError &gt; .shape {fill: #FFD27F;} .node.state.Container.Succeeded &gt; .shape {fill: #91EA9A;} .node.state.Container.InProgress &gt; .shape {fill :#A9E4F7;} .node.state.Container.Cancelled &gt; .shape {fill: #EEEEEE;} marker {fill: #555555;} .node.anchor,.node.state.NotYetStarted {cursor: default;} .node.state {cursor: pointer;} tspan .label {font-weight: normal;font-size: 12px;text-shadow: none;} </style></svg>