<!DOCTYPE svg PUBLIC "-//W3C//DTD SVG 1.1//EN" "https://www.w3.org/Graphics/SVG/1.1/DTD/svg11.dtd"><svg xmlns="http://www.w3.org/2000/svg" id="sfn-svg" class="sfn-workflow-graph" width="556" height="480">
    
    
<g transform="translate(14.5,19.625)"><g class="nodes"><g class="node-container" transform="translate(268.15625,18.25)"><g class="node anchor"><circle class="shape" x="-15.875" y="-8.25" r="25.875"/><text class="label"><tspan xml:space="preserve" text-anchor="middle" alignment-baseline="central">Start</tspan></text></g></g><g class="node-container" transform="translate(268.15625,425.875)"><g class="node anchor"><circle class="shape" x="-12.1875" y="-8.25" r="22.1875"/><text class="label"><tspan xml:space="preserve" text-anchor="middle" alignment-baseline="central">End</tspan></text></g></g><g class="node-container" transform="translate(268.15625,79.75)"><g class="node state Task Succeeded"><rect class="shape" rx="5" ry="5" x="-59.6875" y="-18.25" width="119.375" height="36.5"/><text class="label"><tspan xml:space="preserve" text-anchor="middle" alignment-baseline="central">prepareExercise</tspan></text></g></g><g class="node-container" transform="translate(268.15625,252.8125)"><g class="node state Map Container Succeeded" transform="translate(-260.65625,-129.8125)"><rect class="shape" rx="5" ry="5" x="-10" y="-10" width="519.3125" height="257.625"/><rect class="shape" rx="5" ry="5" x="-5" y="-5" width="520.3125" height="258.625"/><rect class="shape" rx="5" ry="5" x="0" y="0" width="521.3125" height="259.625"/><g class="branches" transform="translate(20,20)"><g class="branch" transform="translate(0,0)"><g class="nodes"><g class="node-container" transform="translate(240.65625,48.28125)"><g class="node state Parallel Container Succeeded" transform="translate(-240.65625,-48.28125)"><rect class="shape" rx="19.3125" ry="19.3125" x="0" y="0" width="481.3125" height="96.5625"/><g class="branches" transform="translate(20,40)"><g class="branch" transform="translate(0,0)"><g class="nodes"><g class="node-container" transform="translate(62.25,18.25)"><g class="node state Task Succeeded"><rect class="shape" rx="5" ry="5" x="-62.25" y="-18.25" width="124.5" height="36.5"/><text class="label"><tspan xml:space="preserve" text-anchor="middle" alignment-baseline="central">extractMetadata</tspan></text></g></g></g><g class="edges"/></g><g class="branch" transform="translate(144.5,0)"><g class="nodes"><g class="node-container" transform="translate(63.5,18.28125)"><g class="node state Task Succeeded"><rect class="shape" rx="5" ry="5" x="-63.5" y="-18.28125" width="127" height="36.5625"/><text class="label"><tspan xml:space="preserve" text-anchor="middle" alignment-baseline="central">processTexToSvg</tspan></text></g></g></g><g class="edges"/></g><g class="branch" transform="translate(291.5,0)"><g class="nodes"><g class="node-container" transform="translate(74.90625,18.25)"><g class="node state Task Succeeded"><rect class="shape" rx="5" ry="5" x="-74.90625" y="-18.25" width="149.8125" height="36.5"/><text class="label"><tspan xml:space="preserve" text-anchor="middle" alignment-baseline="central">processTexToSpeech</tspan></text></g></g></g><g class="edges"/></g></g><path class="path" marker-end="url(#arrowhead10)" d="M240.65625,0L240.65625,3.333333333333333C240.65625,6.666666666666666,240.65625,13.333333333333332,214.25520833333334,16.666666666666664C187.85416666666666,20,135.05208333333331,20,108.65104166666666,23.33333333333333C82.25,26.666666666666664,82.25,33.33333333333333,82.24999999999999,36.666666666666664L82.25,40" style="fill: none;"/><path class="path" marker-end="url(#arrowhead11)" d="M240.65625,0L240.65625,3.333333333333333C240.65625,6.666666666666666,240.65625,13.333333333333332,238.546875,16.666666666666664C236.4375,20,232.21875,20,230.109375,23.33333333333333C228,26.666666666666664,228,33.33333333333333,228,36.666666666666664L228,40" style="fill: none;"/><path class="path" marker-end="url(#arrowhead12)" d="M240.65625,0L240.65625,3.333333333333333C240.65625,6.666666666666666,240.65625,13.333333333333332,264.94791666666663,16.666666666666664C289.2395833333333,20,337.82291666666663,20,362.11458333333326,23.33333333333333C386.40624999999994,26.666666666666664,386.40624999999994,33.33333333333333,386.4062499999999,36.666666666666664L386.40625,40" style="fill: none;"/></g></g><g class="node-container" transform="translate(240.65625,139.8125)"><g class="node state Pass Succeeded"><rect class="shape" rx="5" ry="5" x="-54.90625" y="-18.25" width="109.8125" height="36.5"/><text class="label"><tspan xml:space="preserve" text-anchor="middle" alignment-baseline="central">formatOutput</tspan></text></g></g><g class="node-container" transform="translate(240.65625,201.34375)"><g class="node state Task Succeeded"><rect class="shape" rx="5" ry="5" x="-47.5625" y="-18.28125" width="95.125" height="36.5625"/><text class="label"><tspan xml:space="preserve" text-anchor="middle" alignment-baseline="central">notifyClient</tspan></text></g></g></g><g class="edges"><g class="edge"><path class="path" marker-end="url(#arrowhead13)" d="M240.65625,96.5625L240.65625,98.64583333333333C240.65625,100.72916666666666,240.65625,104.89583333333333,240.65625,109.0625C240.65625,113.22916666666666,240.65625,117.39583333333331,240.65625,119.47916666666666L240.65625,121.5625" style="fill: none;"/><defs><marker id="arrowhead13" viewBox="0 0 10 10" refX="9" refY="5" markerUnits="strokeWidth" markerWidth="8" markerHeight="6" orient="auto"><path d="M 0 0 L 10 5 L 0 10 z"/></marker></defs></g><g class="edge"><path class="path" marker-end="url(#arrowhead14)" d="M240.65625,158.0625L240.65625,160.14583333333334C240.65625,162.22916666666666,240.65625,166.39583333333331,240.65625,170.56249999999997C240.65625,174.72916666666666,240.65625,178.89583333333331,240.65625,180.97916666666666L240.65625,183.0625" style="fill: none;"/><defs><marker id="arrowhead14" viewBox="0 0 10 10" refX="9" refY="5" markerUnits="strokeWidth" markerWidth="8" markerHeight="6" orient="auto"><path d="M 0 0 L 10 5 L 0 10 z"/></marker></defs></g></g></g></g><path class="path" marker-end="url(#arrowhead15)" d="M260.65625,0L260.65624999999994,1.6666666666666665C260.65625,3.333333333333333,260.65625,6.666666666666666,260.65624999999994,8.333333333333332C260.65625,10,260.65625,10,260.65624999999994,11.666666666666664C260.65625,13.333333333333332,260.65625,16.666666666666664,260.65624999999994,18.333333333333332L260.65625,20" style="fill: none;"/></g></g></g><g class="edges"><g class="edge"><path class="path" marker-end="url(#arrowhead16)" d="M268.15625,98L268.15624999999994,100.08333333333331C268.15625,102.16666666666666,268.15625,106.33333333333331,268.15624999999994,110.49999999999999C268.15625,114.66666666666666,268.15625,118.83333333333333,268.15624999999994,120.91666666666666L268.15625,123" style="fill: none;"/><defs><marker id="arrowhead16" viewBox="0 0 10 10" refX="9" refY="5" markerUnits="strokeWidth" markerWidth="8" markerHeight="6" orient="auto"><path d="M 0 0 L 10 5 L 0 10 z"/></marker></defs></g><g class="edge"><path class="path" marker-end="url(#arrowhead17)" d="M268.15625,44.125L268.15624999999994,44.93749999999999C268.15625,45.75,268.15625,47.375,268.15624999999994,50.27083333333333C268.15625,53.166666666666664,268.15625,57.33333333333333,268.15624999999994,59.416666666666664L268.15625,61.5" style="fill: none;"/><defs><marker id="arrowhead17" viewBox="0 0 10 10" refX="9" refY="5" markerUnits="strokeWidth" markerWidth="8" markerHeight="6" orient="auto"><path d="M 0 0 L 10 5 L 0 10 z"/></marker></defs></g><g class="edge"><path class="path" marker-end="url(#arrowhead18)" d="M268.15625,382.625L268.15624999999994,384.70833333333326C268.15625,386.79166666666663,268.15625,390.95833333333326,268.15624999999994,394.46874999999994C268.15625,397.97916666666663,268.15625,400.8333333333333,268.15624999999994,402.26041666666663L268.15625,403.6875" style="fill: none;"/><defs><marker id="arrowhead18" viewBox="0 0 10 10" refX="9" refY="5" markerUnits="strokeWidth" markerWidth="8" markerHeight="6" orient="auto"><path d="M 0 0 L 10 5 L 0 10 z"/></marker></defs></g></g></g><style xmlns="http://www.w3.org/1999/xhtml">.node &gt; .shape {stroke: #555555;stroke-width: 0.6px;fill: #FFFFFF;} path {stroke: #555;background-color: #555;stroke-width: 1px;} .node.state.NotYetStarted &gt; .shape,.node.state.Container &gt; .shape {stroke-dasharray: 5 2;} .node.state.Failed &gt; .shape,rect.legend.Failed {fill: #DE322F;} .node.state.CaughtError &gt; .shape,rect.legend.CaughtError {fill: #FFA500;} .node.state.Succeeded &gt; .shape,rect.legend.Succeeded {fill: #2BD62E;} .node.state.InProgress &gt; .shape,rect.legend.InProgress {fill: #53c9ed;} .node.state.Cancelled &gt; .shape,rect.legend.Cancelled {fill: #dddddd;} .node.anchor &gt; .shape {fill: #FFDA75;} .node.state.hovered:not(.selected):not(.NotYetStarted) &gt; .shape,.node.selected &gt; .shape {stroke: #555555;stroke-width: 2px;} .node.state.Container.Failed &gt; .shape {fill: #EE9592;} .node.state.Container.CaughtError &gt; .shape {fill: #FFD27F;} .node.state.Container.Succeeded &gt; .shape {fill: #91EA9A;} .node.state.Container.InProgress &gt; .shape {fill :#A9E4F7;} .node.state.Container.Cancelled &gt; .shape {fill: #EEEEEE;} marker {fill: #555555;} .node.anchor,.node.state.NotYetStarted {cursor: default;} .node.state {cursor: pointer;} tspan .label {font-weight: normal;font-size: 12px;text-shadow: none;} </style></svg>