<!DOCTYPE svg PUBLIC "-//W3C//DTD SVG 1.1//EN" "https://www.w3.org/Graphics/SVG/1.1/DTD/svg11.dtd"><svg xmlns="http://www.w3.org/2000/svg" id="sfn-svg" class="sfn-workflow-graph" width="766" height="542">
    
    
<g transform="translate(14.5,19.625)"><g class="nodes"><g class="node-container" transform="translate(462.8046875,18.25)"><g class="node anchor"><circle class="shape" x="-15.875" y="-8.25" r="25.875"/><text class="label"><tspan xml:space="preserve" text-anchor="middle" alignment-baseline="central">Start</tspan></text></g></g><g class="node-container" transform="translate(462.8046875,487.375)"><g class="node anchor"><circle class="shape" x="-12.1875" y="-8.25" r="22.1875"/><text class="label"><tspan xml:space="preserve" text-anchor="middle" alignment-baseline="central">End</tspan></text></g></g><g class="node-container" transform="translate(462.8046875,79.75)"><g class="node state Task Succeeded"><rect class="shape" rx="5" ry="5" x="-59.6875" y="-18.25" width="119.375" height="36.5"/><text class="label"><tspan xml:space="preserve" text-anchor="middle" alignment-baseline="central">prepareExercise</tspan></text></g></g><g class="node-container" transform="translate(462.8046875,141.25)"><g class="node state Choice Succeeded"><rect class="shape" rx="5" ry="5" x="-46.921875" y="-18.25" width="93.84375" height="36.5"/><text class="label"><tspan xml:space="preserve" text-anchor="middle" alignment-baseline="central">Input valid?</tspan></text></g></g><g class="node-container" transform="translate(657.453125,314.3125)"><g class="node state Task Succeeded"><rect class="shape" rx="5" ry="5" x="-81.140625" y="-18.28125" width="162.28125" height="36.5625"/><text class="label"><tspan xml:space="preserve" text-anchor="middle" alignment-baseline="central">notifyInvalidInputTask</tspan></text></g></g><g class="node-container" transform="translate(268.15625,314.3125)"><g class="node state Map Container NotYetStarted" transform="translate(-260.65625,-129.8125)"><rect class="shape" rx="5" ry="5" x="-10" y="-10" width="519.3125" height="257.625"/><rect class="shape" rx="5" ry="5" x="-5" y="-5" width="520.3125" height="258.625"/><rect class="shape" rx="5" ry="5" x="0" y="0" width="521.3125" height="259.625"/><g class="branches" transform="translate(20,20)"><g class="branch" transform="translate(0,0)"><g class="nodes"><g class="node-container" transform="translate(240.65625,48.28125)"><g class="node state Parallel Container NotYetStarted" transform="translate(-240.65625,-48.28125)"><rect class="shape" rx="19.3125" ry="19.3125" x="0" y="0" width="481.3125" height="96.5625"/><g class="branches" transform="translate(20,40)"><g class="branch" transform="translate(0,0)"><g class="nodes"><g class="node-container" transform="translate(62.25,18.25)"><g class="node state Task NotYetStarted"><rect class="shape" rx="5" ry="5" x="-62.25" y="-18.25" width="124.5" height="36.5"/><text class="label"><tspan xml:space="preserve" text-anchor="middle" alignment-baseline="central">extractMetadata</tspan></text></g></g></g><g class="edges"/></g><g class="branch" transform="translate(144.5,0)"><g class="nodes"><g class="node-container" transform="translate(63.5,18.28125)"><g class="node state Task NotYetStarted"><rect class="shape" rx="5" ry="5" x="-63.5" y="-18.28125" width="127" height="36.5625"/><text class="label"><tspan xml:space="preserve" text-anchor="middle" alignment-baseline="central">processTexToSvg</tspan></text></g></g></g><g class="edges"/></g><g class="branch" transform="translate(291.5,0)"><g class="nodes"><g class="node-container" transform="translate(74.90625,18.25)"><g class="node state Task NotYetStarted"><rect class="shape" rx="5" ry="5" x="-74.90625" y="-18.25" width="149.8125" height="36.5"/><text class="label"><tspan xml:space="preserve" text-anchor="middle" alignment-baseline="central">processTexToSpeech</tspan></text></g></g></g><g class="edges"/></g></g><path class="path" marker-end="url(#arrowhead118)" d="M240.65625,0L240.65625,3.333333333333333C240.65625,6.666666666666666,240.65625,13.333333333333332,214.25520833333334,16.666666666666664C187.85416666666666,20,135.05208333333331,20,108.65104166666666,23.33333333333333C82.25,26.666666666666664,82.25,33.33333333333333,82.24999999999999,36.666666666666664L82.25,40" style="fill: none;"/><path class="path" marker-end="url(#arrowhead119)" d="M240.65625,0L240.65625,3.333333333333333C240.65625,6.666666666666666,240.65625,13.333333333333332,238.546875,16.666666666666664C236.4375,20,232.21875,20,230.109375,23.33333333333333C228,26.666666666666664,228,33.33333333333333,228,36.666666666666664L228,40" style="fill: none;"/><path class="path" marker-end="url(#arrowhead120)" d="M240.65625,0L240.65625,3.333333333333333C240.65625,6.666666666666666,240.65625,13.333333333333332,264.94791666666663,16.666666666666664C289.2395833333333,20,337.82291666666663,20,362.11458333333326,23.33333333333333C386.40624999999994,26.666666666666664,386.40624999999994,33.33333333333333,386.4062499999999,36.666666666666664L386.40625,40" style="fill: none;"/></g></g><g class="node-container" transform="translate(240.65625,139.8125)"><g class="node state Pass NotYetStarted"><rect class="shape" rx="5" ry="5" x="-54.90625" y="-18.25" width="109.8125" height="36.5"/><text class="label"><tspan xml:space="preserve" text-anchor="middle" alignment-baseline="central">formatOutput</tspan></text></g></g><g class="node-container" transform="translate(240.65625,201.34375)"><g class="node state Task NotYetStarted"><rect class="shape" rx="5" ry="5" x="-61.625" y="-18.28125" width="123.25" height="36.5625"/><text class="label"><tspan xml:space="preserve" text-anchor="middle" alignment-baseline="central">notifyClientTask</tspan></text></g></g></g><g class="edges"><g class="edge"><path class="path" marker-end="url(#arrowhead121)" d="M240.65625,96.5625L240.65625,98.64583333333333C240.65625,100.72916666666666,240.65625,104.89583333333333,240.65625,109.0625C240.65625,113.22916666666666,240.65625,117.39583333333331,240.65625,119.47916666666666L240.65625,121.5625" style="fill: none;"/><defs><marker id="arrowhead121" viewBox="0 0 10 10" refX="9" refY="5" markerUnits="strokeWidth" markerWidth="8" markerHeight="6" orient="auto"><path d="M 0 0 L 10 5 L 0 10 z"/></marker></defs></g><g class="edge"><path class="path" marker-end="url(#arrowhead122)" d="M240.65625,158.0625L240.65625,160.14583333333334C240.65625,162.22916666666666,240.65625,166.39583333333331,240.65625,170.56249999999997C240.65625,174.72916666666666,240.65625,178.89583333333331,240.65625,180.97916666666666L240.65625,183.0625" style="fill: none;"/><defs><marker id="arrowhead122" viewBox="0 0 10 10" refX="9" refY="5" markerUnits="strokeWidth" markerWidth="8" markerHeight="6" orient="auto"><path d="M 0 0 L 10 5 L 0 10 z"/></marker></defs></g></g></g></g><path class="path" marker-end="url(#arrowhead123)" d="M260.65625,0L260.65624999999994,1.6666666666666665C260.65625,3.333333333333333,260.65625,6.666666666666666,260.65624999999994,8.333333333333332C260.65625,10,260.65625,10,260.65624999999994,11.666666666666664C260.65625,13.333333333333332,260.65625,16.666666666666664,260.65624999999994,18.333333333333332L260.65625,20" style="fill: none;"/></g></g></g><g class="edges"><g class="edge"><path class="path" marker-end="url(#arrowhead124)" d="M462.8046875,98L462.80468749999994,100.08333333333331C462.8046875,102.16666666666666,462.8046875,106.33333333333331,462.80468749999994,110.49999999999999C462.8046875,114.66666666666666,462.8046875,118.83333333333333,462.80468749999994,120.91666666666666L462.8046875,123" style="fill: none;"/><defs><marker id="arrowhead124" viewBox="0 0 10 10" refX="9" refY="5" markerUnits="strokeWidth" markerWidth="8" markerHeight="6" orient="auto"><path d="M 0 0 L 10 5 L 0 10 z"/></marker></defs></g><g class="edge"><path class="path" marker-end="url(#arrowhead125)" d="M462.8046875,44.125L462.80468749999994,44.93749999999999C462.8046875,45.75,462.8046875,47.375,462.80468749999994,50.27083333333333C462.8046875,53.166666666666664,462.8046875,57.33333333333333,462.80468749999994,59.416666666666664L462.8046875,61.5" style="fill: none;"/><defs><marker id="arrowhead125" viewBox="0 0 10 10" refX="9" refY="5" markerUnits="strokeWidth" markerWidth="8" markerHeight="6" orient="auto"><path d="M 0 0 L 10 5 L 0 10 z"/></marker></defs></g><g class="edge"><path class="path" marker-end="url(#arrowhead126)" d="M509.7265625,148.66258278145696L534.34765625,152.5521523178808C558.96875,156.44172185430463,608.2109375,164.2208609271523,632.83203125,188.78230546357614C657.453125,213.34375,657.453125,254.6875,657.453125,275.359375L657.453125,296.03125" style="fill: none;"/><defs><marker id="arrowhead126" viewBox="0 0 10 10" refX="9" refY="5" markerUnits="strokeWidth" markerWidth="8" markerHeight="6" orient="auto"><path d="M 0 0 L 10 5 L 0 10 z"/></marker></defs></g><g class="edge"><path class="path" marker-end="url(#arrowhead127)" d="M415.8828125,148.66258278145696L391.26171874999994,152.5521523178808C366.640625,156.44172185430463,317.3984375,164.2208609271523,292.77734374999994,170.19376379690948C268.15625,176.16666666666666,268.15625,180.33333333333331,268.15624999999994,182.41666666666666L268.15625,184.5" style="fill: none;"/><defs><marker id="arrowhead127" viewBox="0 0 10 10" refX="9" refY="5" markerUnits="strokeWidth" markerWidth="8" markerHeight="6" orient="auto"><path d="M 0 0 L 10 5 L 0 10 z"/></marker></defs></g><g class="edge"><path class="path" marker-end="url(#arrowhead128)" d="M268.15625,444.125L268.15624999999994,446.20833333333326C268.15625,448.29166666666663,268.15625,452.45833333333326,296.94503748790305,459.0896364660801C325.7338249758062,465.72093959882693,383.31139995161243,474.81687919765386,412.1001874395156,479.3648489970674L440.8889749274187,483.91281879648085" style="fill: none;"/><defs><marker id="arrowhead128" viewBox="0 0 10 10" refX="9" refY="5" markerUnits="strokeWidth" markerWidth="8" markerHeight="6" orient="auto"><path d="M 0 0 L 10 5 L 0 10 z"/></marker></defs></g><g class="edge"><path class="path" marker-end="url(#arrowhead129)" d="M657.453125,332.59375L657.453125,353.265625C657.453125,373.9375,657.453125,415.28124999999994,628.6643375120968,440.50109479941347C599.8755500241937,465.72093959882693,542.2979750483875,474.81687919765386,513.5091875604844,479.3648489970674L484.7204000725813,483.91281879648085" style="fill: none;"/><defs><marker id="arrowhead129" viewBox="0 0 10 10" refX="9" refY="5" markerUnits="strokeWidth" markerWidth="8" markerHeight="6" orient="auto"><path d="M 0 0 L 10 5 L 0 10 z"/></marker></defs></g></g></g><style xmlns="http://www.w3.org/1999/xhtml">.node &gt; .shape {stroke: #555555;stroke-width: 0.6px;fill: #FFFFFF;} path {stroke: #555;background-color: #555;stroke-width: 1px;} .node.state.NotYetStarted &gt; .shape,.node.state.Container &gt; .shape {stroke-dasharray: 5 2;} .node.state.Failed &gt; .shape,rect.legend.Failed {fill: #DE322F;} .node.state.CaughtError &gt; .shape,rect.legend.CaughtError {fill: #FFA500;} .node.state.Succeeded &gt; .shape,rect.legend.Succeeded {fill: #2BD62E;} .node.state.InProgress &gt; .shape,rect.legend.InProgress {fill: #53c9ed;} .node.state.Cancelled &gt; .shape,rect.legend.Cancelled {fill: #dddddd;} .node.anchor &gt; .shape {fill: #FFDA75;} .node.state.hovered:not(.selected):not(.NotYetStarted) &gt; .shape,.node.selected &gt; .shape {stroke: #555555;stroke-width: 2px;} .node.state.Container.Failed &gt; .shape {fill: #EE9592;} .node.state.Container.CaughtError &gt; .shape {fill: #FFD27F;} .node.state.Container.Succeeded &gt; .shape {fill: #91EA9A;} .node.state.Container.InProgress &gt; .shape {fill :#A9E4F7;} .node.state.Container.Cancelled &gt; .shape {fill: #EEEEEE;} marker {fill: #555555;} .node.anchor,.node.state.NotYetStarted {cursor: default;} .node.state {cursor: pointer;} tspan .label {font-weight: normal;font-size: 12px;text-shadow: none;} </style></svg>